/* XPM */
static char * browser_xpm[] = {
/* width height ncolors cpp [x_hot y_hot] */
"48 48 11 1 0 0",
/* colors */
" 	s none	m none	c none",
".	s iconColor2	m white	c white",
"X	s iconColor1	m black	c black",
"o	s iconColor8	m black	c magenta",
"O	s iconColor3	m black	c red",
"+	s iconColor5	m black	c blue",
"@	s iconColor4	m white	c green",
"#	s iconColor7	m white	c cyan",
"$	s iconColor6	m white	c yellow",
"%	s iconGray6	m black	c #636363636363",
"&	s iconGray8	m black	c #212121212121",
/* pixels */
"                    .........                   ",
"                    .XooXooXXX                  ",
"                    .oXXoXXoX X                 ",
"                    .XooXooXXX                  ",
"                    .oXXoXXoX X                 ",
"                    .XooXooXXX     .........    ",
" .........          .oXXoXXoX X    .XOXOXOXXX   ",
" .X+X+X+XXX         .XooXooXXX     .OXOXOXOX X  ",
" .+X+X+X+X X        .XXXXXXXX X    .XOXOXOXXX   ",
" .X+X+X+XXX          X X X X X     .OXOXOXOX X  ",
" .+X+X+X+X X          X X X X X    .XOXOXOXXX   ",
" .X+X+X+XXX                        .OXOXOXOX X  ",
" .+X+X+X+X X      XXXXXXXX         .XOXOXOXXX   ",
" .X+X+X+XXX     XX        XX X     .XXXXXXXX X  ",
" .XXXXXXXX X   X.           X X     X X X X X   ",
"  X X X X X   X.      ....   X X     X X X X X  ",
" ......... X X. X...    ...   X X               ",
" .X@X@X@XXXXX.OXOOXXX    ...   X                ",
" .@@@@@@@X  X.XOXXOX X     ..  X                ",
" .X@X@X@XXXXX.OXOOXXX      ..   XX              ",
" .@@@@@@@X X.XXOXXOX X      ..  X               ",
" .X@X@X@XXXX.XOXOOXXX       ..  XX              ",
" .@@@@@@@X X.XXOXXOX X       .  X X             ",
" .X@X@X@XXXX.XOXOOXXX        .  XX              ",
" .XXXXXXXX X.XXXXXXX X          X X             ",
"  X X X X XX. X X X X           XX              ",
" ......... X..X..... .........  X X             ",
" .#X#X#X#XX.X.$X$$$XX.XoXoXoXX X X              ",
" .X#X#X#XX .X.X$X$$X .oXoXoXoX XX X             ",
" .#X#X#X#XX.$X.X$X$XX.XoXoXoXX X X X            ",
" .X#X#X#XX .$$X.X$XX .oXoXoXoXXXX X X           ",
" .#X#X#X#XX.$$$X..$XX.XoXoXoXXXXX% X X          ",
" .X#X#X#XX .$$$$XX.X.X.X.X.XX.XX$$% X X         ",
" .#X#X#X#XX.$$$$$$XXXXXXXXXXXXXXO$$% X X        ",
" .XXXXXXXX XXXXXXXXX .XXXXXXXXXXXO$$% X X       ",
"  X X X X X X X X X X X X X X  XXXO$$% X X      ",
" ......... ......... .........  XXXO$$% X X     ",
" .XOXOXOXXX.X@X@X@XXX.+X+X+X+XX  XXXO$$% X X    ",
" .OXOXOXOX .@@@@@@@X .X+X+X+XX X  XXXO$$% X X   ",
" .XOXOXOXXX.X@X@X@XXX.+X+X+X+XX    XXXO$$% X X  ",
" .OXOXOXOX .@@@@@@@X .X+X+X+XX X    XXXO$$% X X ",
" .XOXOXOXXX.X@X@X@XXX.+X+X+X+XX      XXXO$$% X X",
" .OXOXOXOX .@@@@@@@X .X+X+X+XX X      XXXO$$% X ",
" .XOXOXOXXX.X@X@X@XXX.+X+X+X+XX        XXXO$%X X",
" .XXXXXXXX .XXXXXXXX .XXXXXXXX X        XXX&X X ",
"  X X X X X X X X X X X X X X X          &&&    ",
"   X X X X X X X X X X X X X X X                ",
"                                                "};
