/* XPM */
static char * viewer_xpm[] = {
/* width height ncolors cpp [x_hot y_hot] */
"48 48 13 1 0 0",
/* colors */
" 	s none	m none	c none",
".	s Gray7	m black	c #424242424242",
"X	s Gray1	m white	c #dededededede",
"o	s Color10	m white	c cyan",
"O	s Color1	m black	c black",
"+	s Color2	m white	c white",
"@	s Gray8	m black	c #212121212121",
"#	s Gray6	m black	c #636363636363",
"$	s Gray2	m white	c #bdbdbdbdbdbd",
"%	s Color6	m white	c green",
"&	s Color5	m black	c darkgreen",
"*	s Color12	m white	c yellow",
"=	s Color4	m white	c red",
/* pixels */
"                                                ",
"                                                ",
"                                                ",
" ...........................................    ",
" .XXXXXXXXXXXXXXXXXXXXXXXXXXXXXXXXXXXXXXXXXX    ",
" .XoO+O+O+O+OoooO+O+OoooooooooooooooO+O+Ooo@#   ",
" .XooOoOoOoOoooooOoOooOooooooooooooooOoOooo@ #  ",
" .XooooooooooooooooooO+OOOoooooOOoooooooooo@#   ",
" .XooooooOooooooooooO$++++OoooO$+Oooooooooo@ #  ",
" .XoooooO+OoooooooooO$$++O+OoO$$++Ooooooooo@#   ",
" .XooooO$++OoooooooOO$$O%+O+O$&$+++Oooooooo@ #  ",
" .XoooO$+++OoooOOOOOOOO%O%+O O&%+%+%Ooooooo@#   ",
" .XoooOO&O%%OOO%%%OO&&%OO%O OO&&%%%%%Oooooo@ #  ",
" .XooOO&O&&%O%%O%%O&&O&&%O%O%%O&&%%%O%Ooooo@#   ",
" .XooO&O&&&O+%O%O%O++++&&%O%OO%O&&O%%%%Oooo@ #  ",
" .XoOO&&&&O+%O%OOOO&&+++&O%O%OOO&&&O%O%%Ooo@#   ",
" .XoO&&O&O+&&%O%OO&&&&+++&&%O%O%O&&&%%O%Ooo@ #  ",
" .XOO&O&&O+&&%%O%OO&&O&&++&%OO%O%O&&&O%O%Oo@#   ",
" .XO&O&&O+&&O%%%O%O&&&&&++&&%O%OO%O&&%O%O%O@ #  ",
" .X&O&&&O+&&&O%O%OO&&&O&&++&&OO%%O%OO&%%%O%@#   ",
" .XO&&&&O+&&&&%%O%OO&&&&&++O&O%O%%OO&O&%%%O@ #  ",
" .X&&&O&O+&O&&%%%O%OO&&&&&+&&OO%%%%O&&&O%%O@#   ",
" .XO&O&&O+&&O&&O%%O%O&&&O&+&&O&O%O%%O&&&O%%@ #  ",
" .X&&&&&O+&&&O&&O%%%%O&&&&&O&OO&&%O%%O&&&%%@#   ",
" .X&&&O&O+&&&&&&&%%O%%O&&O&&&O&O&&%%%%O&O&%@ #  ",
" .X&&O&&O+&&&&&O&%%%O%%&&&&&&OO&&&%O%O%O&O&@#   ",
" .X&&&&&&O+&&&&&&&%%%%%O&&&&OO&OO&O%O%O%O&O@ #  ",
" .X&&&&&&O+&&&&&&O&%%%O%O&&&O&O&&&&&%%%%%%&@#   ",
" .@@@@@@@@O+&O&&O&O%%O%O%O&OO@@@@@@@@@@@@@@@ #  ",
"   # # # # O+OOOOOOOOOOOOOOOOO # # # # # # #    ",
"    # # # # O++# # # # # OOO*#O # # # # # # #   ",
"             OO+#+#+#+#OOOOOO*#O # #            ",
"               OOOOOOOO   OO=**#O # #           ",
"                           OO=**#O # #          ",
"                            OO=**#O # #         ",
"                             OO=**#O # #        ",
"                              OO=**#O # #       ",
"                               OO=**#O # #      ",
"                                OO=**#O # #     ",
"                                 OO=**#O # #    ",
"                                  OO=**#O # #   ",
"                                   OO=**O# #    ",
"                                    OO=OO # #   ",
"                                     OOO # #    ",
"                                                ",
"                                                ",
"                                                ",
"                                                "};
