/* XPM */
static char * viewer_xpm[] = {
/* width height ncolors cpp [x_hot y_hot] */
"48 48 11 1 0 0",
/* colors */
" 	s none	m none	c none",
".	s iconGray7	m black	c #424242424242",
"X	s iconGray1	m white	c #dededededede",
"o	s iconColor7	m white	c cyan",
"O	s iconColor1	m black	c black",
"+	s iconColor2	m white	c white",
"@	s iconGray8	m black	c #212121212121",
"#	s iconGray6	m black	c #636363636363",
"$	s iconColor4	m white	c green",
"%	s iconColor6	m white	c yellow",
"&	s iconColor3	m black	c red",
/* pixels */
"                                                ",
"                                                ",
"                                                ",
" ...........................................    ",
" .XXXXXXXXXXXXXXXXXXXXXXXXXXXXXXXXXXXXXXXXXX    ",
" .XoO+O+O+O+OoooO+O+OoooooooooooooooO+O+Ooo@#   ",
" .XooOoOoOoOoooooOoOooOOoooooooooooooOoOooo@ #  ",
" .XooooooooooooooooooO+OOOoooooOOoOoooooooo@#   ",
" .XooooooOooooooooooO+++o+OooOO+oOoOooooooo@ #  ",
" .XoooooO+OoooooooooO++o+O+OOO+o+oOoOoooooo@#   ",
" .XooooO+O+OoooooooOO+oO$+O+O+$+o+oOoOooooo@ #  ",
" .Xoooo+O+oOoooOOOOOOOO$O$+O O$$+$+$Ooooooo@#   ",
" .XoooOOoO$$OOO$$$OO$$$OO$O OO$$$$$$OOooooo@ #  ",
" .XoooOoO$$$O$$O$$O$$O$$$O$O$$O$$$$$OoOoooo@#   ",
" .XooOoO$$$O+$O$O$O++++$$$O$OO$O$$O$$OoOooo@ #  ",
" .XooOO$$$O+$O$OOOO$$+++$O$O$OOO$$$O$OOoOoo@#   ",
" .XoOOoO$O+$$$O$OO$$$$+++$$$O$O$O$$$$$OoOoo@ #  ",
" .XoOoO$$O+$$$$O$OO$$O$$++$$OO$O$O$$$OoOoOo@#   ",
" .XOoO$$O+$$O$$$O$O$$$$$++$$$O$OO$O$$$O$OoO@ #  ",
" .XoO$$$O+$$$O$O$OO$$$O$$++$$OO$$O$OO$$$$Oo@#   ",
" .XO$$$$O+$$$$$$O$OO$$$$$++O$O$O$$OO$O$$$$O@ #  ",
" .X$$$O$O+$O$$$$$O$OO$$$$$+$$OO$$$$O$$$O$$O@#   ",
" .XO$O$$O+$$O$$O$$O$O$$$O$+$$O$O$O$$O$$$O$$@ #  ",
" .X$$$$$O+$$$O$$O$$$$O$$$$$O$OO$$$O$$O$$$$$@#   ",
" .X$$$O$O+$$$$$$$$$O$$O$$O$$$O$O$$$$$$O$O$$@ #  ",
" .X$$O$$O+$$$$$O$$$$O$$$$$$$$OO$$$$O$O$O$O$@#   ",
" .X$$$$$$O+$$$$$$$$$$$$O$$$$OO$OO$O$O$O$O$O@ #  ",
" .X$$$$$$O+$$$$$$O$$$$O$O$$$O$O$$$$$$$$$$$$@#   ",
" .@@@@@@@@O+$O$$O$O$$O$O$O$OO@@@@@@@@@@@@@@@ #  ",
"   # # # # O+OOOOOOOOOOOOOOOOO # # # # # # #    ",
"    # # # # O++# # # # # OOO%#O # # # # # # #   ",
"             OO+#+#+#+#OOOOOO%#O # #            ",
"               OOOOOOOO   OO&%%#O # #           ",
"                           OO&%%#O # #          ",
"                            OO&%%#O # #         ",
"                             OO&%%#O # #        ",
"                              OO&%%#O # #       ",
"                               OO&%%#O # #      ",
"                                OO&%%#O # #     ",
"                                 OO&%%#O # #    ",
"                                  OO&%%#O # #   ",
"                                   OO&%%O# #    ",
"                                    OO&OO # #   ",
"                                     OOO # #    ",
"                                                ",
"                                                ",
"                                                ",
"                                                "};
