#define dragptr_l_m_width 32
#define dragptr_l_m_height 32
#define dragptr_l_m_x_hot 17
#define dragptr_l_m_y_hot 13
static unsigned char dragptr_l_m_bits[] = {
   0x00, 0x00, 0x00, 0x00, 0x00, 0x00, 0x00, 0x00, 0x00, 0x00, 0x00, 0x00,
   0x00, 0x00, 0x00, 0x00, 0x00, 0x00, 0x00, 0x00, 0x00, 0x00, 0x00, 0x00,
   0x00, 0x00, 0x00, 0x00, 0x00, 0x00, 0x00, 0x00, 0x00, 0x00, 0x00, 0x00,
   0x00, 0x00, 0x00, 0x00, 0x00, 0xc7, 0xf1, 0x00, 0x80, 0xef, 0xfb, 0x01,
   0xc0, 0xff, 0xff, 0x0f, 0xc0, 0xff, 0xff, 0x1f, 0xc0, 0xff, 0xff, 0x3f,
   0xc0, 0xff, 0xff, 0x3f, 0x80, 0xff, 0xff, 0x3f, 0x00, 0xff, 0xff, 0x3f,
   0xc0, 0xff, 0xff, 0x3f, 0xe0, 0xff, 0xff, 0x3f, 0xf0, 0xff, 0xff, 0x3f,
   0xf0, 0xff, 0xff, 0x3f, 0xf0, 0xff, 0xff, 0x1f, 0xf0, 0xff, 0xff, 0x0f,
   0xe0, 0xff, 0xff, 0x0f, 0xc0, 0xff, 0xff, 0x07, 0x80, 0xff, 0xff, 0x07,
   0x00, 0xff, 0xff, 0x03, 0x00, 0xfe, 0xff, 0x03, 0x00, 0xfc, 0xff, 0x03,
   0x00, 0xfc, 0xff, 0x03, 0x00, 0xfc, 0xff, 0x03};
