#define dragptr_l_width 32
#define dragptr_l_height 32
#define dragptr_l_x_hot 17
#define dragptr_l_y_hot 13
static unsigned char dragptr_l_bits[] = {
   0xff, 0xff, 0xff, 0xff, 0xff, 0xff, 0xff, 0xff, 0xff, 0xff, 0xff, 0xff,
   0xff, 0xff, 0xff, 0xff, 0xff, 0xff, 0xff, 0xff, 0xff, 0xff, 0xff, 0xff,
   0xff, 0xff, 0xff, 0xff, 0xff, 0xff, 0xff, 0xff, 0xff, 0xff, 0xff, 0xff,
   0xff, 0xff, 0xff, 0xff, 0xff, 0x38, 0x0e, 0xff, 0x7f, 0xd7, 0xf5, 0xfe,
   0xbf, 0xef, 0xfb, 0xf0, 0xbf, 0xef, 0xfb, 0xee, 0xbf, 0xff, 0xff, 0xde,
   0xbf, 0xff, 0xff, 0xde, 0x7f, 0xff, 0xff, 0xdf, 0xff, 0xfe, 0xff, 0xdf,
   0x3f, 0xff, 0xff, 0xdf, 0xdf, 0xff, 0xff, 0xdf, 0xef, 0xff, 0xff, 0xdf,
   0xef, 0xff, 0xff, 0xdf, 0xef, 0xff, 0xff, 0xef, 0xef, 0xff, 0xff, 0xf7,
   0xdf, 0xff, 0xff, 0xf7, 0xbf, 0xff, 0xff, 0xfb, 0x7f, 0xff, 0xff, 0xfb,
   0xff, 0xfe, 0xff, 0xfd, 0xff, 0xfd, 0xff, 0xfd, 0xff, 0xfb, 0xff, 0xfd,
   0xff, 0xfb, 0xff, 0xfd, 0xff, 0xfb, 0xff, 0xfd};
