#define dragptr_l_m_width 24
#define dragptr_l_m_height 24
#define dragptr_l_m_x_hot 11
#define dragptr_l_m_y_hot 11
static unsigned char dragptr_l_m_bits[] = {
   0x00, 0x00, 0x00, 0x00, 0x00, 0x00, 0x00, 0x00, 0x00, 0x00, 0x00, 0x00,
   0x00, 0x00, 0x00, 0x00, 0x00, 0x00, 0x00, 0x00, 0x00, 0xc0, 0xdd, 0x01,
   0xe0, 0xff, 0x03, 0xf0, 0xff, 0x0f, 0xf0, 0xff, 0x1f, 0xf0, 0xff, 0x1f,
   0xc0, 0xff, 0x1f, 0xf0, 0xff, 0x1f, 0xf8, 0xff, 0x1f, 0xf8, 0xff, 0x1f,
   0xf8, 0xff, 0x0f, 0xf8, 0xff, 0x0f, 0xf0, 0xff, 0x07, 0xe0, 0xff, 0x07,
   0xc0, 0xff, 0x03, 0x80, 0xff, 0x03, 0x80, 0xff, 0x03, 0x80, 0xff, 0x03};
