#define dragptr_l_width 24
#define dragptr_l_height 24
#define dragptr_l_x_hot 11
#define dragptr_l_y_hot 11
static unsigned char dragptr_l_bits[] = {
   0xff, 0xff, 0xff, 0xff, 0xff, 0xff, 0xff, 0xff, 0xff, 0xff, 0xff, 0xff,
   0xff, 0xff, 0xff, 0xff, 0xff, 0xff, 0xff, 0xff, 0xff, 0x3f, 0x22, 0xfe,
   0xdf, 0xdd, 0xfd, 0xef, 0xdd, 0xf1, 0xef, 0xff, 0xed, 0xcf, 0xff, 0xef,
   0xbf, 0xff, 0xef, 0x8f, 0xff, 0xef, 0xb7, 0xff, 0xef, 0xf7, 0xff, 0xef,
   0xf7, 0xff, 0xf7, 0xf7, 0xff, 0xf7, 0xef, 0xff, 0xfb, 0xdf, 0xff, 0xfb,
   0xbf, 0xff, 0xfd, 0x7f, 0xff, 0xfd, 0x7f, 0xff, 0xfd, 0x7f, 0xff, 0xfd};
