#define dragptr_width 16
#define dragptr_height 16
#define dragptr_x_hot 8
#define dragptr_y_hot 8
static unsigned char dragptr_bits[] = {
   0xff, 0xff, 0xff, 0xff, 0xff, 0xff, 0xff, 0xff, 0xff, 0xff, 0x4f, 0xf2,
   0xb7, 0xcd, 0xf7, 0xaf, 0xef, 0xbf, 0xe7, 0xbf, 0xfb, 0xbf, 0xfb, 0xdf,
   0xf7, 0xdf, 0xef, 0xef, 0xdf, 0xef, 0xdf, 0xef};
