#define grabptr_width 16
#define grabptr_height 16
#define grabptr_x_hot 8
#define grabptr_y_hot 8
static unsigned char grabptr_bits[] = {
   0x7f, 0xfe, 0xa7, 0xf1, 0x9b, 0xed, 0x9b, 0xad, 0xb7, 0x4d, 0xb7, 0x6d,
   0xe9, 0x6f, 0xe6, 0x7f, 0xee, 0xbf, 0xfd, 0xbf, 0xfb, 0xbf, 0xf7, 0xdf,
   0xf7, 0xdf, 0xef, 0xef, 0xdf, 0xef, 0xdf, 0xef};
