#define hgptr_l_m_width 48
#define hgptr_l_m_height 48
#define hgptr_l_m_x_hot 22
#define hgptr_l_m_y_hot 24
static unsigned char hgptr_l_m_bits[] = {
   0x00, 0xff, 0xff, 0xff, 0x0f, 0x00, 0x80, 0xff, 0xff, 0xff, 0x1f, 0x00,
   0xc0, 0xff, 0xff, 0xff, 0x3f, 0x00, 0xc0, 0xff, 0xff, 0xff, 0x3f, 0x00,
   0xc0, 0xff, 0xff, 0xff, 0x3f, 0x00, 0xc0, 0xff, 0xff, 0xff, 0x3f, 0x00,
   0x80, 0xff, 0xff, 0xff, 0x1f, 0x00, 0x00, 0x07, 0x00, 0x34, 0x0e, 0x00,
   0x00, 0x07, 0x00, 0x28, 0x0e, 0x00, 0x00, 0x07, 0x00, 0x30, 0x0e, 0x00,
   0x00, 0x07, 0x00, 0x28, 0x0e, 0x00, 0x00, 0x07, 0x00, 0x30, 0x0e, 0x00,
   0x00, 0x07, 0x00, 0x28, 0x0e, 0x00, 0x00, 0x07, 0x00, 0x30, 0x0e, 0x00,
   0x00, 0x0e, 0x00, 0x28, 0x07, 0x00, 0x00, 0x1c, 0x00, 0x90, 0x03, 0x00,
   0x00, 0x38, 0x00, 0xc8, 0x01, 0x00, 0x00, 0x70, 0x00, 0xe4, 0x00, 0x00,
   0x00, 0xe0, 0x00, 0x70, 0x00, 0x00, 0x00, 0xc0, 0x01, 0x39, 0x00, 0x00,
   0x00, 0x80, 0x03, 0x1c, 0x00, 0x00, 0x00, 0x00, 0x07, 0x0e, 0x00, 0x00,
   0x00, 0x00, 0x0e, 0x07, 0x00, 0x00, 0x00, 0x00, 0x9c, 0x03, 0x00, 0x00,
   0x00, 0x00, 0x9c, 0x03, 0x00, 0x00, 0x00, 0x00, 0x8e, 0x07, 0x00, 0x00,
   0x00, 0x00, 0x07, 0x0e, 0x00, 0x00, 0x00, 0x80, 0x03, 0x1c, 0x00, 0x00,
   0x00, 0xc0, 0x01, 0x38, 0x00, 0x00, 0x00, 0xe0, 0x00, 0x70, 0x00, 0x00,
   0x00, 0x70, 0x00, 0xe1, 0x00, 0x00, 0x00, 0x38, 0x00, 0xc0, 0x01, 0x00,
   0x00, 0x1c, 0x00, 0x84, 0x03, 0x00, 0x00, 0x0e, 0x00, 0x08, 0x07, 0x00,
   0x00, 0x07, 0x00, 0x10, 0x0e, 0x00, 0x00, 0x07, 0x00, 0x28, 0x0e, 0x00,
   0x00, 0x07, 0x00, 0x30, 0x0e, 0x00, 0x00, 0x07, 0x00, 0x28, 0x0e, 0x00,
   0x00, 0x07, 0x00, 0x30, 0x0e, 0x00, 0x00, 0x07, 0x00, 0x28, 0x0e, 0x00,
   0x00, 0x07, 0x00, 0x30, 0x0e, 0x00, 0x00, 0x07, 0x00, 0x00, 0x0e, 0x00,
   0x80, 0xff, 0xff, 0xff, 0x1f, 0x00, 0xc0, 0xff, 0xff, 0xff, 0x3f, 0x00,
   0xc0, 0xff, 0xff, 0xff, 0x3f, 0x00, 0xc0, 0xff, 0xff, 0xff, 0x3f, 0x00,
   0x80, 0xff, 0xff, 0xff, 0x1f, 0x00, 0x00, 0xff, 0xff, 0xff, 0x0f, 0x00};
