#define hgptr_m_width 24
#define hgptr_m_height 24
#define hgptr_m_x_hot 11
#define hgptr_m_y_hot 12
static unsigned char hgptr_m_bits[] = {
   0xf0, 0xff, 0x03, 0xf8, 0xff, 0x07, 0xf8, 0xff, 0x07, 0x70, 0x50, 0x03,
   0xb0, 0x60, 0x03, 0x70, 0x50, 0x03, 0xb0, 0x60, 0x03, 0x60, 0x90, 0x01,
   0xc0, 0xe1, 0x00, 0x80, 0x7f, 0x00, 0x00, 0x3f, 0x00, 0x00, 0x1e, 0x00,
   0x00, 0x1e, 0x00, 0x00, 0x33, 0x00, 0x80, 0x61, 0x00, 0xc0, 0xd0, 0x00,
   0x60, 0xa0, 0x01, 0xb0, 0x50, 0x03, 0x70, 0x6c, 0x03, 0xb0, 0x5e, 0x03,
   0x70, 0x3f, 0x03, 0xf8, 0xff, 0x07, 0xf8, 0xff, 0x07, 0xf0, 0xff, 0x03};
