#define hgptr_width 24
#define hgptr_height 24
#define hgptr_x_hot 11
#define hgptr_y_hot 12
static unsigned char hgptr_bits[] = {
   0x0f, 0x00, 0xfc, 0xf7, 0xff, 0xfb, 0xf7, 0xff, 0xfb, 0xef, 0xaf, 0xfd,
   0xef, 0x9f, 0xfd, 0xef, 0xaf, 0xfd, 0xef, 0x9f, 0xfd, 0xdf, 0xef, 0xfe,
   0xbf, 0x7f, 0xff, 0x7f, 0xbf, 0xff, 0xff, 0xde, 0xff, 0xff, 0xed, 0xff,
   0xff, 0xed, 0xff, 0xff, 0xde, 0xff, 0x7f, 0xbf, 0xff, 0xbf, 0x6f, 0xff,
   0xdf, 0xdf, 0xfe, 0xef, 0xaf, 0xfd, 0xef, 0x9f, 0xfd, 0xef, 0xbf, 0xfd,
   0xef, 0xff, 0xfd, 0xf7, 0xff, 0xfb, 0xf7, 0xff, 0xfb, 0x0f, 0x00, 0xfc};
