#define hgptr_l_width 48
#define hgptr_l_height 48
#define hgptr_l_x_hot 22
#define hgptr_l_y_hot 24
static unsigned char hgptr_l_bits[] = {
   0x00, 0x00, 0x00, 0x00, 0x00, 0x00, 0x00, 0xff, 0xff, 0xff, 0x0f, 0x00,
   0x80, 0xff, 0xff, 0xff, 0x1f, 0x00, 0x80, 0xff, 0xff, 0xff, 0x1f, 0x00,
   0x80, 0xff, 0xff, 0xff, 0x1f, 0x00, 0x80, 0xff, 0xff, 0xff, 0x1f, 0x00,
   0x00, 0x02, 0x00, 0x00, 0x04, 0x00, 0x00, 0x02, 0x00, 0x00, 0x04, 0x00,
   0x00, 0x02, 0x00, 0x00, 0x04, 0x00, 0x00, 0x02, 0x00, 0x00, 0x04, 0x00,
   0x00, 0x02, 0x00, 0x00, 0x04, 0x00, 0x00, 0x02, 0x00, 0x00, 0x04, 0x00,
   0x00, 0x02, 0x00, 0x00, 0x04, 0x00, 0x00, 0x02, 0x00, 0x00, 0x04, 0x00,
   0x00, 0x04, 0x00, 0x00, 0x02, 0x00, 0x00, 0x08, 0x00, 0x00, 0x01, 0x00,
   0x00, 0x10, 0x00, 0x80, 0x00, 0x00, 0x00, 0x20, 0x00, 0x40, 0x00, 0x00,
   0x00, 0x40, 0x00, 0x20, 0x00, 0x00, 0x00, 0x80, 0x00, 0x10, 0x00, 0x00,
   0x00, 0x00, 0x01, 0x08, 0x00, 0x00, 0x00, 0x00, 0x02, 0x04, 0x00, 0x00,
   0x00, 0x00, 0x04, 0x02, 0x00, 0x00, 0x00, 0x00, 0x08, 0x01, 0x00, 0x00,
   0x00, 0x00, 0x08, 0x01, 0x00, 0x00, 0x00, 0x00, 0x04, 0x02, 0x00, 0x00,
   0x00, 0x00, 0x02, 0x04, 0x00, 0x00, 0x00, 0x00, 0x01, 0x08, 0x00, 0x00,
   0x00, 0x80, 0x00, 0x10, 0x00, 0x00, 0x00, 0x40, 0x00, 0x20, 0x00, 0x00,
   0x00, 0x20, 0x00, 0x40, 0x00, 0x00, 0x00, 0x10, 0x00, 0x80, 0x00, 0x00,
   0x00, 0x08, 0x00, 0x00, 0x01, 0x00, 0x00, 0x04, 0x00, 0x00, 0x02, 0x00,
   0x00, 0x02, 0x00, 0x00, 0x04, 0x00, 0x00, 0x02, 0x00, 0x00, 0x04, 0x00,
   0x00, 0x02, 0x00, 0x00, 0x04, 0x00, 0x00, 0x02, 0x00, 0x00, 0x04, 0x00,
   0x00, 0x02, 0x00, 0x00, 0x04, 0x00, 0x00, 0x02, 0x00, 0x00, 0x04, 0x00,
   0x00, 0x02, 0x00, 0x00, 0x04, 0x00, 0x00, 0x02, 0x00, 0x00, 0x04, 0x00,
   0x00, 0x03, 0x00, 0x00, 0x0c, 0x00, 0x80, 0xff, 0xff, 0xff, 0x1f, 0x00,
   0x80, 0xff, 0xff, 0xff, 0x1f, 0x00, 0x80, 0xff, 0xff, 0xff, 0x1f, 0x00,
   0x00, 0xff, 0xff, 0xff, 0x0f, 0x00, 0x00, 0x00, 0x00, 0x00, 0x00, 0x00};
