#define mag_m_width 48
#define mag_m_height 48
#define mag_m_x_hot 0
#define mag_m_y_hot 0
static unsigned char mag_m_bits[] = {
   0x00, 0x00, 0x00, 0x00, 0x00, 0x00, 0x00, 0x00, 0x00, 0x00, 0x00, 0x00,
   0x00, 0x00, 0x00, 0x00, 0x00, 0x00, 0x00, 0x00, 0x00, 0x00, 0x00, 0x00,
   0x00, 0x00, 0x00, 0x00, 0x00, 0x00, 0x00, 0x00, 0x00, 0x00, 0x00, 0x00,
   0x00, 0x00, 0x00, 0x00, 0x00, 0x00, 0x00, 0x00, 0x00, 0x00, 0x00, 0x00,
   0x00, 0xc0, 0x3f, 0x00, 0x00, 0x00, 0x00, 0x30, 0xc0, 0x00, 0x00, 0x00,
   0x00, 0x08, 0x00, 0x01, 0x00, 0x00, 0x00, 0x04, 0x3c, 0x02, 0x00, 0x00,
   0x00, 0x02, 0x70, 0x04, 0x00, 0x00, 0x00, 0x01, 0xe0, 0x08, 0x00, 0x00,
   0x00, 0x01, 0x80, 0x09, 0x00, 0x00, 0x80, 0x00, 0x80, 0x11, 0x00, 0x00,
   0x80, 0x00, 0x00, 0x13, 0x00, 0x00, 0x80, 0x00, 0x00, 0x13, 0x00, 0x00,
   0x80, 0x00, 0x00, 0x12, 0x00, 0x00, 0x80, 0x00, 0x00, 0x12, 0x00, 0x00,
   0x80, 0x00, 0x00, 0x10, 0x00, 0x00, 0x80, 0x00, 0x00, 0x10, 0x00, 0x00,
   0x80, 0x00, 0x00, 0x10, 0x00, 0x00, 0x00, 0x01, 0x00, 0x08, 0x00, 0x00,
   0x00, 0x01, 0x00, 0x08, 0x00, 0x00, 0x00, 0x02, 0x00, 0x0c, 0x00, 0x00,
   0x00, 0x04, 0x00, 0x1e, 0x00, 0x00, 0x00, 0x08, 0x00, 0x3f, 0x00, 0x00,
   0x00, 0x30, 0xc0, 0x7f, 0x00, 0x00, 0x00, 0xc0, 0x3f, 0xfe, 0x00, 0x00,
   0x00, 0x00, 0x00, 0xfc, 0x01, 0x00, 0x00, 0x00, 0x00, 0xf8, 0x03, 0x00,
   0x00, 0x00, 0x00, 0xf0, 0x07, 0x00, 0x00, 0x00, 0x00, 0xe0, 0x0f, 0x00,
   0x00, 0x00, 0x00, 0xc0, 0x1f, 0x00, 0x00, 0x00, 0x00, 0x80, 0x3f, 0x00,
   0x00, 0x00, 0x00, 0x00, 0x7f, 0x00, 0x00, 0x00, 0x00, 0x00, 0xfe, 0x00,
   0x00, 0x00, 0x00, 0x00, 0xfc, 0x00, 0x00, 0x00, 0x00, 0x00, 0xf8, 0x00,
   0x00, 0x00, 0x00, 0x00, 0x70, 0x00, 0x00, 0x00, 0x00, 0x00, 0x00, 0x00,
   0x00, 0x00, 0x00, 0x00, 0x00, 0x00, 0x00, 0x00, 0x00, 0x00, 0x00, 0x00,
   0x00, 0x00, 0x00, 0x00, 0x00, 0x00, 0x00, 0x00, 0x00, 0x00, 0x00, 0x00,
   0x00, 0x00, 0x00, 0x00, 0x00, 0x00, 0x00, 0x00, 0x00, 0x00, 0x00, 0x00};
