#define tbbrowse_s_width 16
#define tbbrowse_s_height 16
#define tbbrowse_s_x_hot 0
#define tbbrowse_s_y_hot 0
static unsigned char tbbrowse_s_bits[] = {
   0x00, 0x00, 0x00, 0x00, 0x00, 0x1c, 0xf8, 0x2b, 0xec, 0x54, 0x14, 0x6b,
   0xae, 0x5e, 0x09, 0x72, 0x09, 0x52, 0x12, 0x67, 0xe2, 0x65, 0x04, 0x4b,
   0xfc, 0x77, 0x00, 0x2c, 0x00, 0x38, 0x00, 0x00};
