#define tbhflip_s_width 16
#define tbhflip_s_height 16
#define tbhflip_s_x_hot 0
#define tbhflip_s_y_hot 0
static unsigned char tbhflip_s_bits[] = {
   0x00, 0x00, 0x80, 0x00, 0xbe, 0x3e, 0xa2, 0x22, 0xb2, 0x26, 0xa2, 0x22,
   0xb2, 0x26, 0xaa, 0x2a, 0xb2, 0x26, 0xaa, 0x2a, 0xb6, 0x36, 0xaa, 0x2a,
   0xb6, 0x36, 0xbe, 0x3e, 0x80, 0x00, 0x00, 0x00};
