#define tbnext_s_width 16
#define tbnext_s_height 16
#define tbnext_s_x_hot 0
#define tbnext_s_y_hot 0
static unsigned char tbnext_s_bits[] = {
   0x00, 0x00, 0x00, 0x00, 0x00, 0x02, 0x00, 0x06, 0x00, 0x0a, 0x00, 0x12,
   0xfe, 0x23, 0x02, 0x40, 0xfe, 0x23, 0x00, 0x12, 0x00, 0x0a, 0x00, 0x06,
   0x00, 0x02, 0x00, 0x00, 0x00, 0x00, 0x00, 0x00};
