#define tbopen_s_width 16
#define tbopen_s_height 16
#define tbopen_s_x_hot 0
#define tbopen_s_y_hot 0
static unsigned char tbopen_s_bits[] = {
   0x00, 0x0f, 0xa0, 0x10, 0x60, 0x00, 0xe0, 0x00, 0x00, 0x1c, 0xf8, 0x2b,
   0x54, 0x55, 0xac, 0x6a, 0xfe, 0x5f, 0x01, 0x70, 0x01, 0x50, 0x02, 0x60,
   0x02, 0x60, 0x04, 0x40, 0xf8, 0x7f, 0x00, 0x00};
