#define tbpin_width 24
#define tbpin_height 24
static unsigned char tbpin_bits[] = {
   0x00, 0x00, 0x00, 0x00, 0x00, 0x00, 0x00, 0x00, 0x00, 0x00, 0x00, 0x00,
   0x00, 0x00, 0x0f, 0x00, 0x80, 0x11, 0xc0, 0x83, 0x20, 0x60, 0xe4, 0x20,
   0x20, 0x9e, 0x40, 0x20, 0x82, 0x40, 0x20, 0x02, 0x41, 0x20, 0xa2, 0x56,
   0x40, 0x54, 0x2b, 0x40, 0xec, 0x1c, 0xf0, 0x7a, 0x00, 0xbc, 0x55, 0x00,
   0x87, 0x6a, 0x00, 0x00, 0x57, 0x00, 0x00, 0x3c, 0x00, 0x00, 0x00, 0x00,
   0x00, 0x00, 0x00, 0x00, 0x00, 0x00, 0x00, 0x00, 0x00, 0x00, 0x00, 0x00};
