#define tbpin_s_width 16
#define tbpin_s_height 16
#define tbpin_s_x_hot 0
#define tbpin_s_y_hot 0
static unsigned char tbpin_s_bits[] = {
   0x00, 0x00, 0x00, 0x00, 0x00, 0x00, 0x00, 0x18, 0x60, 0x24, 0x90, 0x47,
   0x90, 0x44, 0x90, 0x48, 0x20, 0x3d, 0x30, 0x06, 0x5c, 0x05, 0x86, 0x03,
   0x00, 0x00, 0x00, 0x00, 0x00, 0x00, 0x00, 0x00};
