#define tbprev_s_width 16
#define tbprev_s_height 16
#define tbprev_s_x_hot 0
#define tbprev_s_y_hot 0
static unsigned char tbprev_s_bits[] = {
   0x00, 0x00, 0x00, 0x00, 0x40, 0x00, 0x60, 0x00, 0x50, 0x00, 0x48, 0x00,
   0xc4, 0x7f, 0x02, 0x40, 0xc4, 0x7f, 0x48, 0x00, 0x50, 0x00, 0x60, 0x00,
   0x40, 0x00, 0x00, 0x00, 0x00, 0x00, 0x00, 0x00};
