#define tbrol_s_width 16
#define tbrol_s_height 16
#define tbrol_s_x_hot 0
#define tbrol_s_y_hot 0
static unsigned char tbrol_s_bits[] = {
   0x00, 0x00, 0x00, 0x00, 0x00, 0x00, 0xc0, 0x07, 0x20, 0x08, 0xd0, 0x17,
   0x68, 0x28, 0x28, 0x30, 0x28, 0x20, 0xc6, 0x20, 0x44, 0x00, 0x28, 0x00,
   0x10, 0x00, 0x00, 0x00, 0x00, 0x00, 0x00, 0x00};
