#define tbror_s_width 16
#define tbror_s_height 16
#define tbror_s_x_hot 0
#define tbror_s_y_hot 0
static unsigned char tbror_s_bits[] = {
   0x00, 0x00, 0x00, 0x00, 0x00, 0x00, 0xf0, 0x01, 0x08, 0x02, 0xf4, 0x05,
   0x0a, 0x0b, 0x06, 0x0a, 0x02, 0x0a, 0x82, 0x31, 0x00, 0x11, 0x00, 0x0a,
   0x00, 0x04, 0x00, 0x00, 0x00, 0x00, 0x00, 0x00};
