#define tbvflip_s_width 16
#define tbvflip_s_height 16
#define tbvflip_s_x_hot 0
#define tbvflip_s_y_hot 0
static unsigned char tbvflip_s_bits[] = {
   0x00, 0x00, 0x00, 0x00, 0xfc, 0x3f, 0x2c, 0x20, 0x54, 0x21, 0xac, 0x2a,
   0xfc, 0x3f, 0x00, 0x00, 0xfe, 0x7f, 0x00, 0x00, 0xfc, 0x3f, 0xac, 0x2a,
   0x54, 0x21, 0x2c, 0x20, 0xfc, 0x3f, 0x00, 0x00};
