#define tbzoomout_s_width 16
#define tbzoomout_s_height 16
#define tbzoomout_s_x_hot 0
#define tbzoomout_s_y_hot 0
static unsigned char tbzoomout_s_bits[] = {
   0x70, 0x00, 0x8c, 0x01, 0x02, 0x02, 0x02, 0x02, 0x01, 0x04, 0xf9, 0x04,
   0x01, 0x04, 0x02, 0x02, 0x02, 0x02, 0x8c, 0x07, 0x70, 0x0e, 0x00, 0x1c,
   0x00, 0x38, 0x00, 0x70, 0x00, 0x60, 0x00, 0x00};
