#define tbzoomin_s_width 16
#define tbzoomin_s_height 16
#define tbzoomin_s_x_hot 0
#define tbzoomin_s_y_hot 0
static unsigned char tbzoomin_s_bits[] = {
   0x70, 0x00, 0x8c, 0x01, 0x02, 0x02, 0x22, 0x02, 0x21, 0x04, 0xf9, 0x04,
   0x21, 0x04, 0x22, 0x02, 0x02, 0x02, 0x8c, 0x07, 0x70, 0x0e, 0x00, 0x1c,
   0x00, 0x38, 0x00, 0x70, 0x00, 0x60, 0x00, 0x00};
