#define tbzreset_width 24
#define tbzreset_height 24
static unsigned char tbzreset_bits[] = {
   0x00, 0x00, 0x00, 0xc0, 0x07, 0x00, 0x30, 0x18, 0x00, 0x08, 0x20, 0x00,
   0x04, 0x40, 0x00, 0x04, 0x40, 0x00, 0x42, 0x84, 0x00, 0x42, 0x85, 0x00,
   0x42, 0x84, 0x00, 0x42, 0x85, 0x00, 0x42, 0x84, 0x00, 0x04, 0x40, 0x00,
   0x04, 0x60, 0x00, 0x08, 0xb0, 0x00, 0x30, 0x78, 0x01, 0xc0, 0xe7, 0x02,
   0x00, 0xc0, 0x05, 0x00, 0x80, 0x0b, 0x00, 0x00, 0x17, 0x00, 0x00, 0x2e,
   0x00, 0x00, 0x5c, 0x00, 0x00, 0x78, 0x00, 0x00, 0x70, 0x00, 0x00, 0x00};
