#define tbzreset_s_width 16
#define tbzreset_s_height 16
#define tbzreset_s_x_hot 0
#define tbzreset_s_y_hot 0
static unsigned char tbzreset_s_bits[] = {
   0x70, 0x00, 0x8c, 0x01, 0x02, 0x02, 0x8a, 0x02, 0xa9, 0x04, 0x89, 0x04,
   0xa9, 0x04, 0x8a, 0x02, 0x02, 0x02, 0x8c, 0x07, 0x70, 0x0e, 0x00, 0x1c,
   0x00, 0x38, 0x00, 0x70, 0x00, 0x60, 0x00, 0x00};
